<svg id="svg" version="1.1" xmlns="http://www.w3.org/2000/svg" xmlns:xlink="http://www.w3.org/1999/xlink" width="400" height="400" viewBox="0, 0, 400,400"><g id="svgg"><path id="path0" d="M164.400 177.571 C 164.400 226.640,164.332 228.961,162.749 234.000 C 159.036 245.818,148.563 252.323,136.600 250.243 C 125.463 248.307,118.513 240.156,117.292 227.600 L 117.000 224.600 105.900 224.494 L 94.800 224.387 94.800 226.248 C 94.800 229.980,96.459 237.764,98.285 242.600 C 102.805 254.572,112.096 263.503,124.271 267.579 C 138.259 272.262,155.129 270.466,166.078 263.127 C 167.331 262.287,168.464 261.600,168.595 261.600 C 169.106 261.600,174.514 256.452,176.813 253.778 C 181.717 248.074,185.522 238.766,186.384 230.368 C 186.647 227.804,186.800 208.621,186.800 178.158 L 186.800 130.000 175.600 130.000 L 164.400 130.000 164.400 177.571 M214.000 199.223 L 214.000 268.447 240.500 268.287 C 259.201 268.174,267.589 267.986,269.000 267.648 C 270.100 267.385,271.810 266.976,272.800 266.739 C 274.976 266.219,278.955 264.929,280.600 264.209 C 284.726 262.405,288.471 260.387,289.898 259.200 C 290.295 258.870,291.621 257.790,292.845 256.800 C 297.528 253.013,303.516 243.937,304.589 239.000 C 307.279 226.623,306.013 216.909,300.569 208.141 C 298.403 204.651,293.140 199.581,289.471 197.447 C 286.284 195.594,286.167 195.001,288.679 193.414 C 306.512 182.147,306.984 153.030,289.543 140.078 C 277.649 131.246,271.201 130.000,237.386 130.000 L 214.000 130.000 214.000 199.223 M264.800 150.580 C 285.246 155.390,285.389 180.364,265.000 185.531 C 260.641 186.635,258.436 186.800,248.012 186.800 C 238.235 186.800,236.856 186.723,236.643 186.167 C 236.289 185.246,236.344 150.190,236.700 149.826 C 237.336 149.175,261.595 149.827,264.800 150.580 M264.469 206.432 C 276.749 208.922,282.944 215.277,283.504 225.960 C 284.075 236.858,277.993 244.776,266.632 247.926 C 264.568 248.498,262.114 248.600,250.400 248.600 L 236.600 248.600 236.496 227.800 C 236.439 216.360,236.478 206.775,236.583 206.500 C 236.834 205.846,261.287 205.787,264.469 206.432 " stroke="none" fill="#fbf3fb" fill-rule="evenodd"></path><path id="path1" d="M30.800 0.270 C 30.250 0.360,29.440 0.581,29.000 0.761 C 27.441 1.400,25.334 2.000,24.648 2.000 C 24.266 2.000,24.047 2.153,24.163 2.340 C 24.279 2.528,23.614 2.925,22.687 3.224 C 21.759 3.522,20.910 3.864,20.800 3.983 C 20.357 4.464,18.772 5.200,18.182 5.200 C 17.836 5.200,17.664 5.380,17.800 5.600 C 17.936 5.820,17.806 6.000,17.512 6.000 C 17.217 6.000,16.717 6.360,16.400 6.800 C 16.083 7.240,15.594 7.600,15.315 7.600 C 14.547 7.600,12.792 9.263,13.075 9.722 C 13.215 9.948,13.123 10.000,12.865 9.840 C 12.612 9.684,11.950 10.014,11.385 10.578 C 10.823 11.140,10.507 11.605,10.682 11.612 C 10.857 11.619,10.681 11.810,10.292 12.037 C 9.902 12.264,9.705 12.646,9.853 12.886 C 10.005 13.132,9.941 13.211,9.707 13.066 C 9.224 12.768,8.278 13.744,8.670 14.137 C 8.815 14.282,8.633 14.400,8.267 14.400 C 7.894 14.400,7.600 14.714,7.600 15.112 C 7.600 15.503,7.240 16.083,6.800 16.400 C 6.360 16.717,6.000 17.217,6.000 17.512 C 6.000 17.806,5.820 17.936,5.600 17.800 C 5.380 17.664,5.200 17.836,5.200 18.182 C 5.200 18.772,4.464 20.357,3.983 20.800 C 3.864 20.910,3.522 21.759,3.224 22.687 C 2.925 23.614,2.548 24.291,2.385 24.191 C 2.223 24.090,1.994 24.501,1.878 25.104 C 1.761 25.707,1.460 26.920,1.208 27.800 C 0.956 28.680,0.578 30.120,0.368 31.000 C -0.214 33.439,0.066 369.963,0.651 371.000 C 1.249 372.062,2.000 374.483,2.000 375.352 C 2.000 375.734,2.153 375.953,2.340 375.837 C 2.528 375.721,2.925 376.386,3.224 377.313 C 3.522 378.241,3.864 379.090,3.983 379.200 C 4.464 379.643,5.200 381.228,5.200 381.818 C 5.200 382.164,5.380 382.336,5.600 382.200 C 5.820 382.064,6.000 382.194,6.000 382.488 C 6.000 382.783,6.360 383.283,6.800 383.600 C 7.240 383.917,7.600 384.406,7.600 384.685 C 7.600 385.453,9.263 387.208,9.722 386.925 C 9.948 386.785,10.000 386.877,9.840 387.135 C 9.684 387.388,10.014 388.050,10.578 388.615 C 11.140 389.177,11.605 389.493,11.612 389.318 C 11.619 389.143,11.810 389.319,12.037 389.708 C 12.264 390.098,12.646 390.295,12.886 390.147 C 13.132 389.995,13.211 390.059,13.066 390.293 C 12.768 390.776,13.744 391.722,14.137 391.330 C 14.282 391.185,14.400 391.367,14.400 391.733 C 14.400 392.106,14.714 392.400,15.112 392.400 C 15.503 392.400,16.083 392.760,16.400 393.200 C 16.717 393.640,17.217 394.000,17.512 394.000 C 17.806 394.000,17.936 394.180,17.800 394.400 C 17.664 394.620,17.836 394.800,18.182 394.800 C 18.772 394.800,20.357 395.536,20.800 396.017 C 20.910 396.136,21.759 396.478,22.687 396.776 C 23.614 397.075,24.291 397.452,24.191 397.615 C 24.090 397.777,24.501 398.006,25.104 398.122 C 25.707 398.239,26.875 398.529,27.700 398.767 C 28.525 399.005,29.875 399.376,30.700 399.590 C 32.837 400.147,367.244 400.124,369.400 399.568 C 370.280 399.341,371.630 398.970,372.400 398.745 C 373.170 398.519,374.293 398.239,374.896 398.122 C 375.499 398.006,375.910 397.777,375.809 397.615 C 375.709 397.452,376.386 397.075,377.313 396.776 C 378.241 396.478,379.090 396.136,379.200 396.017 C 379.643 395.536,381.228 394.800,381.818 394.800 C 382.164 394.800,382.336 394.620,382.200 394.400 C 382.064 394.180,382.194 394.000,382.488 394.000 C 382.783 394.000,383.283 393.640,383.600 393.200 C 383.917 392.760,384.497 392.400,384.888 392.400 C 385.280 392.400,385.600 392.119,385.600 391.776 C 385.600 391.433,385.760 391.251,385.955 391.372 C 386.430 391.666,387.273 390.615,386.897 390.199 C 386.733 390.019,386.814 389.994,387.075 390.144 C 387.337 390.294,387.736 390.098,387.963 389.708 C 388.190 389.319,388.381 389.143,388.388 389.318 C 388.395 389.493,388.860 389.177,389.422 388.615 C 389.986 388.050,390.316 387.388,390.160 387.135 C 390.000 386.877,390.052 386.785,390.278 386.925 C 390.737 387.208,392.400 385.453,392.400 384.685 C 392.400 384.406,392.760 383.917,393.200 383.600 C 393.640 383.283,394.000 382.783,394.000 382.488 C 394.000 382.194,394.180 382.064,394.400 382.200 C 394.620 382.336,394.800 382.164,394.800 381.818 C 394.800 381.228,395.536 379.643,396.017 379.200 C 396.136 379.090,396.478 378.241,396.776 377.313 C 397.075 376.386,397.472 375.721,397.660 375.837 C 397.847 375.953,398.000 375.734,398.000 375.352 C 398.000 374.483,398.751 372.062,399.349 371.000 C 399.934 369.963,400.214 33.439,399.632 31.000 C 399.422 30.120,399.044 28.680,398.792 27.800 C 398.540 26.920,398.239 25.707,398.122 25.104 C 398.006 24.501,397.777 24.090,397.615 24.191 C 397.452 24.291,397.075 23.614,396.776 22.687 C 396.478 21.759,396.136 20.910,396.017 20.800 C 395.536 20.357,394.800 18.772,394.800 18.182 C 394.800 17.836,394.620 17.664,394.400 17.800 C 394.180 17.936,394.000 17.806,394.000 17.512 C 394.000 17.217,393.640 16.717,393.200 16.400 C 392.760 16.083,392.400 15.503,392.400 15.112 C 392.400 14.714,392.106 14.400,391.733 14.400 C 391.367 14.400,391.185 14.282,391.330 14.137 C 391.722 13.744,390.776 12.768,390.293 13.066 C 390.059 13.211,389.995 13.132,390.147 12.886 C 390.295 12.646,390.098 12.264,389.708 12.037 C 389.319 11.810,389.143 11.619,389.318 11.612 C 389.493 11.605,389.177 11.140,388.615 10.578 C 388.050 10.014,387.388 9.684,387.135 9.840 C 386.877 10.000,386.785 9.948,386.925 9.722 C 387.208 9.263,385.453 7.600,384.685 7.600 C 384.406 7.600,383.917 7.240,383.600 6.800 C 383.283 6.360,382.783 6.000,382.488 6.000 C 382.194 6.000,382.064 5.820,382.200 5.600 C 382.336 5.380,382.164 5.200,381.818 5.200 C 381.228 5.200,379.643 4.464,379.200 3.983 C 379.090 3.864,378.241 3.522,377.313 3.224 C 376.386 2.925,375.721 2.528,375.837 2.340 C 375.953 2.153,375.734 2.000,375.352 2.000 C 374.483 2.000,372.062 1.249,371.000 0.651 C 370.234 0.219,33.415 -0.158,30.800 0.270 M187.112 129.137 C 187.524 129.398,187.598 139.519,187.496 181.231 L 187.369 233.000 186.482 236.200 C 185.221 240.743,184.699 242.144,182.757 246.200 C 182.020 247.740,181.309 249.090,181.178 249.200 C 181.047 249.310,180.152 250.569,179.189 251.997 C 174.351 259.173,165.335 265.845,156.600 268.713 C 150.925 270.577,148.008 271.001,141.000 270.981 C 132.583 270.957,126.642 269.884,120.800 267.330 C 117.760 266.002,117.343 265.786,115.728 264.712 C 114.808 264.101,113.940 263.600,113.799 263.600 C 113.658 263.600,113.314 263.375,113.035 263.100 C 112.755 262.825,111.927 262.150,111.194 261.600 C 109.255 260.145,104.741 255.626,103.602 254.000 C 103.063 253.230,102.312 252.262,101.934 251.849 C 99.140 248.801,95.296 238.035,94.418 230.800 C 94.191 228.930,93.890 226.635,93.750 225.700 L 93.495 224.000 105.705 224.000 C 119.624 224.000,118.400 223.621,118.400 227.938 C 118.400 237.429,125.073 246.278,134.209 248.900 C 137.162 249.747,148.020 249.338,148.627 248.356 C 148.748 248.160,149.120 248.000,149.454 248.000 C 151.132 248.000,158.400 242.277,158.400 240.955 C 158.400 240.686,158.557 240.407,158.749 240.333 C 159.295 240.125,161.226 236.073,162.148 233.203 C 162.974 230.629,162.984 230.048,163.103 180.227 C 163.189 144.545,163.351 129.700,163.661 129.327 C 164.160 128.725,186.182 128.547,187.112 129.137 M265.400 129.554 C 271.952 130.844,273.571 131.224,276.200 132.087 C 277.542 132.527,277.933 132.680,282.300 134.464 C 283.015 134.756,283.600 135.131,283.600 135.298 C 283.600 135.464,283.960 135.600,284.400 135.600 C 284.840 135.600,285.200 135.780,285.200 136.000 C 285.200 136.220,285.436 136.400,285.725 136.400 C 286.013 136.400,286.636 136.760,287.108 137.200 C 287.580 137.640,288.154 138.000,288.383 138.000 C 288.612 138.000,288.800 138.180,288.800 138.400 C 288.800 138.620,288.983 138.800,289.206 138.800 C 290.360 138.800,299.600 149.274,299.600 150.582 C 299.600 150.707,299.950 151.572,300.379 152.504 C 303.501 159.302,304.291 168.872,302.336 176.200 C 300.722 182.247,296.445 188.732,291.759 192.235 C 290.902 192.876,289.852 193.715,289.425 194.100 C 288.998 194.485,288.503 194.800,288.325 194.800 C 287.411 194.800,288.296 195.648,290.996 197.358 C 293.763 199.111,300.000 204.823,300.000 205.604 C 300.000 205.790,300.275 206.218,300.612 206.555 C 301.603 207.546,304.717 214.056,305.430 216.627 C 308.074 226.163,306.422 240.989,302.029 247.159 C 301.573 247.800,301.200 248.429,301.200 248.557 C 301.200 249.625,292.590 258.800,291.588 258.800 C 291.375 258.800,291.200 258.980,291.200 259.200 C 291.200 259.420,291.012 259.600,290.783 259.600 C 290.554 259.600,289.980 259.960,289.508 260.400 C 289.036 260.840,288.413 261.200,288.125 261.200 C 287.836 261.200,287.600 261.380,287.600 261.600 C 287.600 261.820,287.345 262.000,287.033 262.000 C 286.722 262.000,286.407 262.135,286.333 262.300 C 286.141 262.732,282.828 264.400,282.162 264.400 C 281.853 264.400,281.600 264.541,281.600 264.713 C 281.600 264.885,280.745 265.275,279.700 265.580 C 278.655 265.885,277.530 266.267,277.200 266.428 C 276.870 266.590,275.880 266.905,275.000 267.128 C 274.120 267.351,272.680 267.716,271.800 267.939 C 267.058 269.140,264.130 269.245,239.000 269.124 L 213.400 269.000 213.297 199.400 C 213.200 133.410,213.231 129.772,213.897 129.269 C 214.835 128.561,261.670 128.820,265.400 129.554 M237.200 168.000 L 237.200 185.600 249.776 185.600 C 257.729 185.600,262.444 185.453,262.600 185.200 C 262.736 184.980,263.379 184.800,264.029 184.800 C 264.679 184.800,265.523 184.635,265.905 184.433 C 266.287 184.231,267.499 183.669,268.598 183.185 C 282.212 177.183,283.162 159.528,270.200 153.430 C 265.183 151.070,260.153 150.400,247.454 150.400 L 237.200 150.400 237.200 168.000 M237.200 227.600 L 237.200 248.000 249.369 248.000 C 263.603 248.000,266.168 247.651,271.658 244.965 C 276.066 242.808,278.868 240.094,280.550 236.353 C 281.181 234.949,281.863 233.475,282.066 233.078 C 282.854 231.534,282.520 222.991,281.566 220.304 C 279.849 215.464,274.527 209.600,271.852 209.600 C 271.519 209.600,271.136 209.420,271.000 209.200 C 270.864 208.980,270.403 208.800,269.976 208.800 C 269.549 208.800,269.200 208.620,269.200 208.400 C 269.200 208.180,268.581 208.000,267.824 208.000 C 267.067 208.000,266.336 207.820,266.200 207.600 C 266.043 207.345,260.729 207.200,251.576 207.200 L 237.200 207.200 237.200 227.600 " stroke="none" fill="#647c9c" fill-rule="evenodd"></path><path id="path2" d="M292.600 142.400 C 293.459 143.280,294.252 144.000,294.362 144.000 C 294.472 144.000,293.859 143.280,293.000 142.400 C 292.141 141.520,291.348 140.800,291.238 140.800 C 291.128 140.800,291.741 141.520,292.600 142.400 M100.324 224.299 C 103.473 224.367,108.513 224.367,111.524 224.299 C 114.536 224.231,111.960 224.176,105.800 224.176 C 99.640 224.176,97.176 224.232,100.324 224.299 M140.100 270.687 C 140.705 270.778,141.695 270.778,142.300 270.687 C 142.905 270.595,142.410 270.520,141.200 270.520 C 139.990 270.520,139.495 270.595,140.100 270.687 " stroke="none" fill="#9eaec4" fill-rule="evenodd"></path><path id="path3" d="M164.187 130.094 C 164.081 130.372,164.041 152.200,164.099 178.600 L 164.203 226.600 164.302 178.300 L 164.400 130.000 175.598 130.000 L 186.797 130.000 186.901 178.100 L 187.005 226.200 187.002 178.000 L 187.000 129.800 175.690 129.694 C 166.857 129.611,164.337 129.698,164.187 130.094 M225.929 129.900 C 232.599 129.961,243.399 129.961,249.929 129.900 C 256.458 129.838,251.000 129.788,237.800 129.788 C 224.600 129.788,219.258 129.838,225.929 129.900 M262.500 130.276 C 262.885 130.376,263.515 130.376,263.900 130.276 C 264.285 130.175,263.970 130.093,263.200 130.093 C 262.430 130.093,262.115 130.175,262.500 130.276 M265.700 130.676 C 266.085 130.776,266.715 130.776,267.100 130.676 C 267.485 130.575,267.170 130.493,266.400 130.493 C 265.630 130.493,265.315 130.575,265.700 130.676 M270.800 131.600 C 272.168 132.038,273.219 132.038,272.200 131.600 C 271.760 131.411,271.040 131.262,270.600 131.268 C 269.957 131.277,269.996 131.343,270.800 131.600 M288.944 139.509 C 289.260 140.021,291.600 141.753,291.600 141.475 C 291.600 141.376,290.939 140.791,290.132 140.175 C 289.324 139.559,288.789 139.259,288.944 139.509 M294.076 144.402 C 295.244 145.834,296.519 147.454,296.909 148.002 L 297.618 149.000 297.047 147.800 C 296.732 147.140,295.457 145.520,294.213 144.200 L 291.952 141.800 294.076 144.402 M236.583 150.100 C 236.478 150.375,236.440 158.610,236.500 168.400 L 236.609 186.200 236.704 168.106 L 236.800 150.013 247.700 149.900 L 258.600 149.787 247.687 149.693 C 239.257 149.621,236.731 149.714,236.583 150.100 M262.200 150.381 C 262.968 150.729,265.110 150.956,264.767 150.653 C 264.675 150.572,263.880 150.396,263.000 150.262 C 261.885 150.093,261.642 150.129,262.200 150.381 M273.527 154.600 C 274.181 155.150,274.838 155.600,274.988 155.600 C 275.139 155.600,274.727 155.150,274.073 154.600 C 273.419 154.050,272.762 153.600,272.612 153.600 C 272.461 153.600,272.873 154.050,273.527 154.600 M276.064 157.100 C 276.621 157.705,277.375 158.645,277.739 159.189 C 278.102 159.733,278.400 160.021,278.400 159.828 C 278.400 159.295,275.852 156.026,275.425 156.012 C 275.219 156.006,275.506 156.495,276.064 157.100 M301.881 160.800 C 302.006 162.010,302.174 163.075,302.254 163.167 C 302.535 163.487,302.317 160.591,301.987 159.600 C 301.771 158.954,301.734 159.380,301.881 160.800 M279.714 165.400 C 279.717 166.500,279.795 166.903,279.887 166.295 C 279.979 165.686,279.977 164.786,279.882 164.295 C 279.787 163.803,279.711 164.300,279.714 165.400 M302.528 168.000 C 302.528 169.430,302.601 170.015,302.689 169.300 C 302.778 168.585,302.778 167.415,302.689 166.700 C 302.601 165.985,302.528 166.570,302.528 168.000 M279.709 170.400 C 279.709 171.390,279.787 171.795,279.882 171.300 C 279.978 170.805,279.978 169.995,279.882 169.500 C 279.787 169.005,279.709 169.410,279.709 170.400 M302.093 172.800 C 302.093 173.570,302.175 173.885,302.276 173.500 C 302.376 173.115,302.376 172.485,302.276 172.100 C 302.175 171.715,302.093 172.030,302.093 172.800 M275.178 179.431 C 274.420 180.217,272.945 181.418,271.900 182.098 C 269.753 183.496,269.417 183.922,271.183 183.009 C 272.327 182.417,277.227 178.044,276.778 178.015 C 276.657 178.007,275.937 178.644,275.178 179.431 M296.985 185.300 C 296.368 186.235,296.120 186.789,296.432 186.531 C 297.033 186.034,298.564 183.600,298.276 183.600 C 298.183 183.600,297.602 184.365,296.985 185.300 M248.200 186.400 L 236.600 186.618 248.200 186.669 C 254.580 186.697,260.250 186.576,260.800 186.400 L 261.800 186.080 260.800 186.131 C 260.250 186.159,254.580 186.280,248.200 186.400 M293.483 189.458 C 292.209 190.691,291.229 191.763,291.306 191.839 C 291.383 191.916,292.510 190.904,293.810 189.590 C 296.798 186.571,296.564 186.477,293.483 189.458 M288.607 193.422 C 287.511 194.180,286.759 194.800,286.935 194.800 C 287.318 194.800,290.800 192.440,290.800 192.181 C 290.800 191.911,290.759 191.934,288.607 193.422 M286.806 195.490 C 286.803 195.759,287.385 196.276,288.100 196.639 C 288.815 197.002,290.300 197.933,291.400 198.709 C 292.500 199.484,293.097 199.777,292.728 199.359 C 292.358 198.942,291.008 197.975,289.728 197.210 C 288.447 196.446,287.268 195.636,287.106 195.410 C 286.917 195.147,286.810 195.175,286.806 195.490 M296.189 202.705 C 297.723 204.297,299.060 205.600,299.159 205.600 C 299.526 205.600,297.304 203.265,294.976 201.205 C 294.109 200.438,294.655 201.113,296.189 202.705 M236.583 206.500 C 236.478 206.775,236.439 216.360,236.496 227.800 L 236.600 248.600 249.600 248.608 L 262.600 248.616 249.700 248.503 L 236.800 248.389 236.800 227.400 L 236.800 206.411 250.100 206.300 L 263.400 206.189 250.087 206.094 C 239.736 206.021,236.732 206.111,236.583 206.500 M265.633 206.943 C 265.725 207.021,266.430 207.201,267.200 207.342 C 268.185 207.523,268.422 207.482,268.000 207.206 C 267.458 206.850,265.237 206.603,265.633 206.943 M301.160 209.000 C 301.834 210.305,302.388 211.028,302.385 210.600 C 302.383 210.380,302.014 209.750,301.564 209.200 C 301.021 208.536,300.885 208.469,301.160 209.000 M278.208 213.300 C 279.067 214.345,279.834 215.200,279.912 215.200 C 280.198 215.200,278.461 212.978,277.566 212.200 C 277.060 211.760,277.349 212.255,278.208 213.300 M302.846 212.200 C 302.853 212.420,303.206 213.320,303.629 214.200 C 304.052 215.080,304.286 215.350,304.149 214.800 C 303.867 213.667,302.825 211.588,302.846 212.200 M280.925 217.168 C 281.400 218.035,281.850 218.684,281.924 218.609 C 282.118 218.416,280.877 216.095,280.434 215.821 C 280.229 215.694,280.450 216.300,280.925 217.168 M283.088 223.800 C 283.211 225.120,283.376 226.275,283.456 226.367 C 283.735 226.689,283.516 223.388,283.193 222.400 C 282.989 221.779,282.949 222.309,283.088 223.800 M306.146 227.400 C 306.147 229.600,306.214 230.449,306.295 229.287 C 306.376 228.124,306.376 226.324,306.293 225.287 C 306.211 224.249,306.145 225.200,306.146 227.400 M94.520 226.400 C 94.520 227.610,94.595 228.105,94.687 227.500 C 94.778 226.895,94.778 225.905,94.687 225.300 C 94.595 224.695,94.520 225.190,94.520 226.400 M117.309 227.200 C 117.309 228.190,117.387 228.595,117.482 228.100 C 117.578 227.605,117.578 226.795,117.482 226.300 C 117.387 225.805,117.309 226.210,117.309 227.200 M186.520 230.000 C 186.520 231.210,186.595 231.705,186.687 231.100 C 186.778 230.495,186.778 229.505,186.687 228.900 C 186.595 228.295,186.520 228.790,186.520 230.000 M283.260 229.250 C 283.227 229.828,283.111 230.907,283.001 231.650 L 282.803 233.000 283.224 231.657 C 283.455 230.919,283.572 229.839,283.482 229.257 L 283.320 228.200 283.260 229.250 M117.693 230.400 C 117.693 231.170,117.775 231.485,117.876 231.100 C 117.976 230.715,117.976 230.085,117.876 229.700 C 117.775 229.315,117.693 229.630,117.693 230.400 M95.301 232.600 C 95.305 233.480,95.387 233.793,95.483 233.295 C 95.579 232.798,95.575 232.078,95.475 231.695 C 95.375 231.313,95.296 231.720,95.301 232.600 M305.453 234.036 C 305.314 234.731,305.221 235.773,305.247 236.350 C 305.272 236.928,305.455 236.427,305.652 235.239 C 306.037 232.921,305.873 231.934,305.453 234.036 M118.417 233.847 C 118.395 234.428,120.071 238.463,120.257 238.276 C 120.335 238.198,119.957 237.069,119.417 235.767 C 118.876 234.465,118.426 233.601,118.417 233.847 M185.646 235.267 C 185.621 235.634,185.496 236.264,185.370 236.667 C 185.152 237.362,185.163 237.363,185.597 236.687 C 185.848 236.296,185.973 235.666,185.873 235.287 C 185.711 234.668,185.688 234.666,185.646 235.267 M279.675 239.184 C 279.194 239.835,278.800 240.500,278.800 240.662 C 278.800 240.823,279.250 240.345,279.800 239.600 C 280.350 238.855,280.800 238.190,280.800 238.122 C 280.800 237.795,280.475 238.102,279.675 239.184 M274.432 244.034 C 273.239 244.895,272.397 245.600,272.560 245.600 C 272.964 245.600,276.300 243.286,276.603 242.795 C 276.951 242.231,276.841 242.295,274.432 244.034 M124.697 244.426 C 125.630 245.415,126.980 246.541,127.697 246.929 C 128.956 247.611,128.966 247.610,128.000 246.919 C 127.450 246.525,126.100 245.398,125.000 244.416 L 123.000 242.629 124.697 244.426 M156.000 244.513 C 155.010 245.444,153.750 246.528,153.200 246.921 C 152.236 247.609,152.247 247.609,153.503 246.929 C 154.639 246.315,158.477 242.784,157.983 242.809 C 157.882 242.814,156.990 243.581,156.000 244.513 M301.882 245.411 C 301.292 246.615,300.894 247.600,300.998 247.600 C 301.267 247.600,303.284 243.551,303.105 243.371 C 303.023 243.289,302.473 244.207,301.882 245.411 M100.600 248.400 C 100.941 249.060,101.311 249.600,101.421 249.600 C 101.531 249.600,101.341 249.060,101.000 248.400 C 100.659 247.740,100.289 247.200,100.179 247.200 C 100.069 247.200,100.259 247.740,100.600 248.400 M147.000 249.600 C 146.496 249.817,146.422 249.944,146.800 249.944 C 147.130 249.944,147.760 249.789,148.200 249.600 C 148.704 249.383,148.778 249.256,148.400 249.256 C 148.070 249.256,147.440 249.411,147.000 249.600 M138.315 250.526 C 139.488 250.715,141.537 250.711,142.915 250.519 C 145.197 250.201,145.025 250.173,140.800 250.179 C 136.868 250.185,136.507 250.236,138.315 250.526 M296.997 252.700 C 295.921 253.965,295.456 254.640,295.964 254.200 C 296.929 253.364,299.383 250.400,299.110 250.400 C 299.023 250.400,298.072 251.435,296.997 252.700 M176.426 254.122 L 175.451 255.400 176.726 254.225 C 178.051 253.003,178.203 252.785,177.700 252.822 C 177.535 252.834,176.962 253.419,176.426 254.122 M104.000 253.725 C 104.000 253.794,104.585 254.379,105.300 255.025 L 106.600 256.200 105.425 254.900 C 104.330 253.688,104.000 253.416,104.000 253.725 M292.485 257.028 C 291.322 258.003,290.517 258.800,290.696 258.800 C 290.875 258.800,291.917 257.998,293.011 257.018 C 295.572 254.723,295.229 254.730,292.485 257.028 M173.829 257.162 L 172.658 258.600 174.009 257.313 C 174.751 256.605,175.278 255.958,175.179 255.875 C 175.081 255.792,174.473 256.371,173.829 257.162 M107.600 257.800 C 108.346 258.570,109.047 259.200,109.157 259.200 C 109.267 259.200,108.746 258.570,108.000 257.800 C 107.254 257.030,106.553 256.400,106.443 256.400 C 106.333 256.400,106.854 257.030,107.600 257.800 M170.975 259.700 L 169.800 261.000 171.100 259.825 C 172.312 258.730,172.584 258.400,172.275 258.400 C 172.206 258.400,171.621 258.985,170.975 259.700 M166.287 262.968 C 163.786 264.700,163.381 265.172,165.434 263.963 C 167.781 262.580,169.062 261.642,168.600 261.643 C 168.380 261.644,167.339 262.240,166.287 262.968 M114.800 263.383 C 114.800 263.633,118.184 265.600,118.613 265.600 C 118.802 265.600,118.105 265.060,117.064 264.400 C 115.181 263.205,114.800 263.034,114.800 263.383 M272.600 266.800 C 272.096 267.017,272.022 267.144,272.400 267.144 C 272.730 267.144,273.360 266.989,273.800 266.800 C 274.304 266.583,274.378 266.456,274.000 266.456 C 273.670 266.456,273.040 266.611,272.600 266.800 M268.600 267.600 C 267.511 267.877,267.493 267.907,268.400 267.925 C 268.950 267.935,269.760 267.789,270.200 267.600 C 271.186 267.176,270.266 267.176,268.600 267.600 M125.600 268.382 C 125.930 268.605,126.545 268.791,126.967 268.794 C 127.990 268.802,127.671 268.573,126.200 268.244 C 125.324 268.048,125.162 268.085,125.600 268.382 M154.400 268.400 C 153.576 268.664,153.541 268.726,154.200 268.754 C 154.640 268.773,155.270 268.613,155.600 268.400 C 156.301 267.947,155.814 267.947,154.400 268.400 M226.300 268.700 C 233.175 268.761,244.425 268.761,251.300 268.700 C 258.175 268.638,252.550 268.588,238.800 268.588 C 225.050 268.588,219.425 268.638,226.300 268.700 M151.200 269.200 C 150.396 269.457,150.357 269.523,151.000 269.532 C 151.440 269.538,152.160 269.389,152.600 269.200 C 153.619 268.762,152.568 268.762,151.200 269.200 M129.700 269.476 C 130.085 269.576,130.715 269.576,131.100 269.476 C 131.485 269.375,131.170 269.293,130.400 269.293 C 129.630 269.293,129.315 269.375,129.700 269.476 M135.511 270.293 C 136.451 270.378,137.891 270.377,138.711 270.291 C 139.530 270.205,138.760 270.136,137.000 270.137 C 135.240 270.139,134.570 270.209,135.511 270.293 M143.300 270.291 C 144.125 270.378,145.475 270.378,146.300 270.291 C 147.125 270.205,146.450 270.134,144.800 270.134 C 143.150 270.134,142.475 270.205,143.300 270.291 " stroke="none" fill="#b4bccc" fill-rule="evenodd"></path><path id="path4" d="M187.394 178.200 C 187.394 204.820,187.441 215.769,187.500 202.531 C 187.558 189.293,187.558 167.513,187.500 154.131 C 187.442 140.749,187.394 151.580,187.394 178.200 M302.928 168.000 C 302.928 169.430,303.001 170.015,303.089 169.300 C 303.178 168.585,303.178 167.415,303.089 166.700 C 303.001 165.985,302.928 166.570,302.928 168.000 M242.300 186.299 C 245.215 186.367,249.985 186.367,252.900 186.299 C 255.815 186.231,253.430 186.175,247.600 186.175 C 241.770 186.175,239.385 186.231,242.300 186.299 M243.300 206.699 C 246.765 206.766,252.435 206.766,255.900 206.699 C 259.365 206.633,256.530 206.578,249.600 206.578 C 242.670 206.578,239.835 206.633,243.300 206.699 M156.175 244.100 L 155.000 245.400 156.300 244.225 C 157.512 243.130,157.784 242.800,157.475 242.800 C 157.406 242.800,156.821 243.385,156.175 244.100 M173.775 257.700 L 172.600 259.000 173.900 257.825 C 175.112 256.730,175.384 256.400,175.075 256.400 C 175.006 256.400,174.421 256.985,173.775 257.700 M107.600 258.200 C 108.346 258.970,109.047 259.600,109.157 259.600 C 109.267 259.600,108.746 258.970,108.000 258.200 C 107.254 257.430,106.553 256.800,106.443 256.800 C 106.333 256.800,106.854 257.430,107.600 258.200 " stroke="none" fill="#90a1b7" fill-rule="evenodd"></path><path id="path5" d="M213.796 199.200 C 213.796 237.370,213.843 252.985,213.900 233.900 C 213.957 214.815,213.957 183.585,213.900 164.500 C 213.843 145.415,213.796 161.030,213.796 199.200 " stroke="none" fill="#acbccc" fill-rule="evenodd"></path><path id="path6" d="M163.680 129.280 C 163.311 129.649,163.223 140.944,163.298 178.180 L 163.395 226.600 163.598 178.000 L 163.800 129.400 175.663 129.400 C 182.187 129.400,187.317 129.268,187.063 129.106 C 186.231 128.578,164.219 128.741,163.680 129.280 M224.872 129.100 C 230.741 129.162,240.461 129.162,246.472 129.100 C 252.482 129.038,247.680 128.987,235.800 128.986 C 223.920 128.986,219.002 129.037,224.872 129.100 M259.511 129.493 C 260.451 129.578,261.891 129.577,262.711 129.491 C 263.530 129.405,262.760 129.336,261.000 129.337 C 259.240 129.339,258.570 129.409,259.511 129.493 M267.300 130.276 C 267.685 130.376,268.315 130.376,268.700 130.276 C 269.085 130.175,268.770 130.093,268.000 130.093 C 267.230 130.093,266.915 130.175,267.300 130.276 M236.994 168.000 L 237.000 185.800 247.800 185.810 L 258.600 185.819 247.904 185.703 L 237.208 185.587 237.098 167.894 L 236.987 150.200 236.994 168.000 M261.300 151.076 C 261.685 151.176,262.315 151.176,262.700 151.076 C 263.085 150.975,262.770 150.893,262.000 150.893 C 261.230 150.893,260.915 150.975,261.300 151.076 M302.493 160.000 C 302.493 160.770,302.575 161.085,302.676 160.700 C 302.776 160.315,302.776 159.685,302.676 159.300 C 302.575 158.915,302.493 159.230,302.493 160.000 M279.091 166.802 C 279.310 171.210,279.536 171.810,279.540 168.000 C 279.542 166.350,279.404 164.641,279.232 164.202 C 279.061 163.764,278.997 164.934,279.091 166.802 M303.324 167.800 C 303.326 169.120,303.401 169.612,303.490 168.893 C 303.579 168.174,303.577 167.094,303.486 166.493 C 303.395 165.892,303.322 166.480,303.324 167.800 M302.493 174.400 C 302.493 175.170,302.575 175.485,302.676 175.100 C 302.776 174.715,302.776 174.085,302.676 173.700 C 302.575 173.315,302.493 173.630,302.493 174.400 M294.088 199.813 C 294.686 200.443,295.247 200.877,295.335 200.779 C 295.423 200.680,294.933 200.165,294.247 199.634 L 293.000 198.669 294.088 199.813 M236.983 207.300 C 236.878 207.575,236.840 216.890,236.900 228.000 L 237.008 248.200 237.104 227.706 L 237.200 207.211 249.700 207.100 L 262.200 206.988 249.687 206.894 C 239.976 206.821,237.132 206.912,236.983 207.300 M282.514 225.000 C 282.517 226.100,282.595 226.503,282.687 225.895 C 282.779 225.286,282.777 224.386,282.682 223.895 C 282.587 223.403,282.511 223.900,282.514 225.000 M118.128 227.200 C 118.128 228.630,118.201 229.215,118.289 228.500 C 118.378 227.785,118.378 226.615,118.289 225.900 C 118.201 225.185,118.128 225.770,118.128 227.200 M306.533 227.434 C 306.533 229.068,306.592 229.225,306.878 228.366 C 307.071 227.787,307.071 226.921,306.878 226.399 C 306.605 225.662,306.533 225.879,306.533 227.434 M282.514 229.400 C 282.517 230.500,282.595 230.903,282.687 230.295 C 282.779 229.686,282.777 228.786,282.682 228.295 C 282.587 227.803,282.511 228.300,282.514 229.400 M162.901 229.400 C 162.905 230.280,162.987 230.593,163.083 230.095 C 163.179 229.598,163.175 228.878,163.075 228.495 C 162.975 228.113,162.896 228.520,162.901 229.400 M186.901 232.200 C 186.905 233.080,186.987 233.393,187.083 232.895 C 187.179 232.398,187.175 231.678,187.075 231.295 C 186.975 230.913,186.896 231.320,186.901 232.200 M280.278 237.005 C 279.912 237.772,279.695 238.400,279.796 238.400 C 280.070 238.400,281.284 235.951,281.101 235.768 C 281.014 235.681,280.644 236.238,280.278 237.005 M139.705 249.887 C 140.314 249.979,141.214 249.977,141.705 249.882 C 142.197 249.787,141.700 249.711,140.600 249.714 C 139.500 249.717,139.097 249.795,139.705 249.887 M262.100 269.091 C 262.925 269.178,264.275 269.178,265.100 269.091 C 265.925 269.005,265.250 268.934,263.600 268.934 C 261.950 268.934,261.275 269.005,262.100 269.091 M133.300 270.687 C 133.905 270.778,134.895 270.778,135.500 270.687 C 136.105 270.595,135.610 270.520,134.400 270.520 C 133.190 270.520,132.695 270.595,133.300 270.687 M147.105 270.683 C 147.602 270.779,148.322 270.775,148.705 270.675 C 149.087 270.575,148.680 270.496,147.800 270.501 C 146.920 270.505,146.607 270.587,147.105 270.683 M143.700 271.076 C 144.085 271.176,144.715 271.176,145.100 271.076 C 145.485 270.975,145.170 270.893,144.400 270.893 C 143.630 270.893,143.315 270.975,143.700 271.076 " stroke="none" fill="#748cac" fill-rule="evenodd"></path><path id="path7" d="M169.924 129.499 C 173.073 129.567,178.113 129.567,181.124 129.499 C 184.136 129.431,181.560 129.376,175.400 129.376 C 169.240 129.376,166.776 129.432,169.924 129.499 M224.872 129.500 C 230.741 129.562,240.461 129.562,246.472 129.500 C 252.482 129.438,247.680 129.387,235.800 129.386 C 223.920 129.386,219.002 129.437,224.872 129.500 M163.794 177.400 C 163.794 203.580,163.841 214.231,163.900 201.069 C 163.958 187.907,163.958 166.487,163.900 153.469 C 163.841 140.451,163.794 151.220,163.794 177.400 M213.396 199.200 C 213.396 237.370,213.443 252.985,213.500 233.900 C 213.557 214.815,213.557 183.585,213.500 164.500 C 213.443 145.415,213.396 161.030,213.396 199.200 " stroke="none" fill="#849cb4" fill-rule="evenodd"></path><path id="path8" d="M242.123 150.299 C 244.941 150.368,249.441 150.368,252.123 150.299 C 254.805 150.230,252.500 150.173,247.000 150.173 C 241.500 150.174,239.305 150.230,242.123 150.299 M243.325 248.299 C 246.804 248.366,252.384 248.366,255.725 248.299 C 259.066 248.232,256.220 248.178,249.400 248.178 C 242.580 248.178,239.846 248.233,243.325 248.299 M225.900 269.100 C 232.335 269.162,242.865 269.162,249.300 269.100 C 255.735 269.038,250.470 268.987,237.600 268.987 C 224.730 268.987,219.465 269.038,225.900 269.100 " stroke="none" fill="#8094b0" fill-rule="evenodd"></path></g></svg>